# xmcd
#
# Track frame offsets: 
#        150
#        1111
#        17541
#        34205
#        49975
#        67469
#        85753
#        101284
#        119965
#        133449
#        150871
#        157458
#        159214
#        179702
#
# Disc length: 2797 seconds
#
# Revision: 0
# Processed by: cddbd v1.5.2PL0 Copyright (c) Steve Scherf et al.
# Submitted via: ExactAudioCopy v0.95b4
#
DISCID=bf0aeb0e
DTITLE=Виола - Понимаешь ?!..
DYEAR=2004
DGENRE=R'n'B
TTITLE0=Intro
TTITLE1=Понимаешь
TTITLE2=Я тебя люблю
TTITLE3=Океан
TTITLE4=Mr. Bass
TTITLE5=Москва
TTITLE6=Лечу
TTITLE7=Волчица
TTITLE8=Ненавижу
TTITLE9=Мальчик-солдат
TTITLE10=Тайна
TTITLE11=Outro
TTITLE12=Слёзы
TTITLE13=Mr. Bass (Long)
EXTD=
EXTT0=
EXTT1=
EXTT2=
EXTT3=
EXTT4=
EXTT5=
EXTT6=
EXTT7=
EXTT8=
EXTT9=
EXTT10=
EXTT11=
EXTT12=
EXTT13=
PLAYORDER=
